<mxfile host="app.diagrams.net" agent="Mozilla/5.0 (Windows NT 10.0; Win64; x64) AppleWebKit/537.36 (KHTML, like Gecko) Chrome/129.0.0.0 Safari/537.36" version="24.7.17">
  <diagram name="Strona-1" id="wbvkkCgzugNlbwAdHbuF">
    <mxGraphModel dx="1105" dy="549" grid="1" gridSize="10" guides="1" tooltips="1" connect="1" arrows="1" fold="1" page="1" pageScale="1" pageWidth="827" pageHeight="1169" math="0" shadow="0">
      <root>
        <mxCell id="0" />
        <mxCell id="1" parent="0" />
        <mxCell id="noA6K6qJ_FCayJkCrpKg-54" style="edgeStyle=orthogonalEdgeStyle;rounded=0;orthogonalLoop=1;jettySize=auto;html=1;exitX=1;exitY=0.5;exitDx=0;exitDy=0;entryX=0;entryY=0.5;entryDx=0;entryDy=0;" edge="1" parent="1" source="noA6K6qJ_FCayJkCrpKg-1" target="noA6K6qJ_FCayJkCrpKg-49">
          <mxGeometry relative="1" as="geometry" />
        </mxCell>
        <mxCell id="noA6K6qJ_FCayJkCrpKg-1" value="" style="shape=sumEllipse;perimeter=ellipsePerimeter;whiteSpace=wrap;html=1;backgroundOutline=1;" vertex="1" parent="1">
          <mxGeometry x="550" y="422.5" width="30" height="30" as="geometry" />
        </mxCell>
        <mxCell id="noA6K6qJ_FCayJkCrpKg-53" style="edgeStyle=orthogonalEdgeStyle;rounded=0;orthogonalLoop=1;jettySize=auto;html=1;exitX=1;exitY=0.5;exitDx=0;exitDy=0;entryX=0;entryY=0.5;entryDx=0;entryDy=0;" edge="1" parent="1" source="noA6K6qJ_FCayJkCrpKg-2" target="noA6K6qJ_FCayJkCrpKg-48">
          <mxGeometry relative="1" as="geometry" />
        </mxCell>
        <mxCell id="noA6K6qJ_FCayJkCrpKg-2" value="" style="shape=sumEllipse;perimeter=ellipsePerimeter;whiteSpace=wrap;html=1;backgroundOutline=1;" vertex="1" parent="1">
          <mxGeometry x="550" y="342.5" width="30" height="30" as="geometry" />
        </mxCell>
        <mxCell id="noA6K6qJ_FCayJkCrpKg-4" value="" style="shape=sumEllipse;perimeter=ellipsePerimeter;whiteSpace=wrap;html=1;backgroundOutline=1;" vertex="1" parent="1">
          <mxGeometry x="550" y="260" width="30" height="30" as="geometry" />
        </mxCell>
        <mxCell id="noA6K6qJ_FCayJkCrpKg-15" style="edgeStyle=orthogonalEdgeStyle;rounded=0;orthogonalLoop=1;jettySize=auto;html=1;exitX=0.5;exitY=1;exitDx=0;exitDy=0;exitPerimeter=0;entryX=0;entryY=0.5;entryDx=0;entryDy=0;" edge="1" parent="1" source="noA6K6qJ_FCayJkCrpKg-5" target="noA6K6qJ_FCayJkCrpKg-10">
          <mxGeometry relative="1" as="geometry" />
        </mxCell>
        <mxCell id="noA6K6qJ_FCayJkCrpKg-5" value="" style="verticalLabelPosition=bottom;shadow=0;dashed=0;align=center;html=1;verticalAlign=top;shape=mxgraph.electrical.radio.aerial_-_antenna_1;" vertex="1" parent="1">
          <mxGeometry x="30" y="240" width="30" height="40" as="geometry" />
        </mxCell>
        <mxCell id="noA6K6qJ_FCayJkCrpKg-16" style="edgeStyle=orthogonalEdgeStyle;rounded=0;orthogonalLoop=1;jettySize=auto;html=1;exitX=0.5;exitY=1;exitDx=0;exitDy=0;exitPerimeter=0;entryX=0;entryY=0.5;entryDx=0;entryDy=0;" edge="1" parent="1" source="noA6K6qJ_FCayJkCrpKg-6" target="noA6K6qJ_FCayJkCrpKg-11">
          <mxGeometry relative="1" as="geometry" />
        </mxCell>
        <mxCell id="noA6K6qJ_FCayJkCrpKg-6" value="" style="verticalLabelPosition=bottom;shadow=0;dashed=0;align=center;html=1;verticalAlign=top;shape=mxgraph.electrical.radio.aerial_-_antenna_1;" vertex="1" parent="1">
          <mxGeometry x="30" y="320" width="30" height="40" as="geometry" />
        </mxCell>
        <mxCell id="noA6K6qJ_FCayJkCrpKg-17" style="edgeStyle=orthogonalEdgeStyle;rounded=0;orthogonalLoop=1;jettySize=auto;html=1;exitX=0.5;exitY=1;exitDx=0;exitDy=0;exitPerimeter=0;entryX=0;entryY=0.5;entryDx=0;entryDy=0;" edge="1" parent="1" source="noA6K6qJ_FCayJkCrpKg-7" target="noA6K6qJ_FCayJkCrpKg-12">
          <mxGeometry relative="1" as="geometry" />
        </mxCell>
        <mxCell id="noA6K6qJ_FCayJkCrpKg-7" value="" style="verticalLabelPosition=bottom;shadow=0;dashed=0;align=center;html=1;verticalAlign=top;shape=mxgraph.electrical.radio.aerial_-_antenna_1;" vertex="1" parent="1">
          <mxGeometry x="30" y="400" width="30" height="40" as="geometry" />
        </mxCell>
        <mxCell id="noA6K6qJ_FCayJkCrpKg-18" style="edgeStyle=orthogonalEdgeStyle;rounded=0;orthogonalLoop=1;jettySize=auto;html=1;exitX=0.5;exitY=1;exitDx=0;exitDy=0;exitPerimeter=0;entryX=0;entryY=0.5;entryDx=0;entryDy=0;" edge="1" parent="1" source="noA6K6qJ_FCayJkCrpKg-8" target="noA6K6qJ_FCayJkCrpKg-13">
          <mxGeometry relative="1" as="geometry" />
        </mxCell>
        <mxCell id="noA6K6qJ_FCayJkCrpKg-8" value="" style="verticalLabelPosition=bottom;shadow=0;dashed=0;align=center;html=1;verticalAlign=top;shape=mxgraph.electrical.radio.aerial_-_antenna_1;" vertex="1" parent="1">
          <mxGeometry x="30" y="480" width="30" height="40" as="geometry" />
        </mxCell>
        <mxCell id="noA6K6qJ_FCayJkCrpKg-22" style="edgeStyle=orthogonalEdgeStyle;rounded=0;orthogonalLoop=1;jettySize=auto;html=1;exitX=1;exitY=0.25;exitDx=0;exitDy=0;entryX=0.5;entryY=1;entryDx=0;entryDy=0;" edge="1" parent="1" source="noA6K6qJ_FCayJkCrpKg-28" target="noA6K6qJ_FCayJkCrpKg-4">
          <mxGeometry relative="1" as="geometry">
            <Array as="points">
              <mxPoint x="565" y="511" />
            </Array>
          </mxGeometry>
        </mxCell>
        <mxCell id="noA6K6qJ_FCayJkCrpKg-26" style="edgeStyle=orthogonalEdgeStyle;rounded=0;orthogonalLoop=1;jettySize=auto;html=1;exitX=1;exitY=0.75;exitDx=0;exitDy=0;entryX=1;entryY=0.75;entryDx=0;entryDy=0;" edge="1" parent="1" target="noA6K6qJ_FCayJkCrpKg-23">
          <mxGeometry relative="1" as="geometry">
            <mxPoint x="447.97" y="622.5" as="sourcePoint" />
            <mxPoint x="239.99999999999997" y="651.5799999999999" as="targetPoint" />
            <Array as="points">
              <mxPoint x="468" y="623" />
              <mxPoint x="468" y="675" />
            </Array>
          </mxGeometry>
        </mxCell>
        <mxCell id="noA6K6qJ_FCayJkCrpKg-67" style="edgeStyle=orthogonalEdgeStyle;rounded=0;orthogonalLoop=1;jettySize=auto;html=1;exitX=0.5;exitY=0;exitDx=0;exitDy=0;strokeColor=#FF0000;" edge="1" parent="1" source="noA6K6qJ_FCayJkCrpKg-9">
          <mxGeometry relative="1" as="geometry">
            <mxPoint x="390" y="490" as="targetPoint" />
            <Array as="points">
              <mxPoint x="390" y="490" />
            </Array>
          </mxGeometry>
        </mxCell>
        <mxCell id="noA6K6qJ_FCayJkCrpKg-9" value="PLL" style="rounded=0;whiteSpace=wrap;html=1;" vertex="1" parent="1">
          <mxGeometry x="330" y="585" width="120" height="60" as="geometry" />
        </mxCell>
        <mxCell id="noA6K6qJ_FCayJkCrpKg-19" style="edgeStyle=orthogonalEdgeStyle;rounded=0;orthogonalLoop=1;jettySize=auto;html=1;exitX=1;exitY=0.5;exitDx=0;exitDy=0;entryX=-0.065;entryY=0.639;entryDx=0;entryDy=0;entryPerimeter=0;" edge="1" parent="1" source="noA6K6qJ_FCayJkCrpKg-10" target="noA6K6qJ_FCayJkCrpKg-80">
          <mxGeometry relative="1" as="geometry" />
        </mxCell>
        <mxCell id="noA6K6qJ_FCayJkCrpKg-39" style="edgeStyle=orthogonalEdgeStyle;rounded=0;orthogonalLoop=1;jettySize=auto;html=1;exitX=1;exitY=0.5;exitDx=0;exitDy=0;entryX=0.5;entryY=0;entryDx=0;entryDy=0;" edge="1" parent="1" source="noA6K6qJ_FCayJkCrpKg-10" target="noA6K6qJ_FCayJkCrpKg-38">
          <mxGeometry relative="1" as="geometry">
            <Array as="points">
              <mxPoint x="240" y="275" />
            </Array>
          </mxGeometry>
        </mxCell>
        <mxCell id="noA6K6qJ_FCayJkCrpKg-10" value="VGA" style="triangle;whiteSpace=wrap;html=1;" vertex="1" parent="1">
          <mxGeometry x="130" y="247.5" width="40" height="55" as="geometry" />
        </mxCell>
        <mxCell id="noA6K6qJ_FCayJkCrpKg-20" style="edgeStyle=orthogonalEdgeStyle;rounded=0;orthogonalLoop=1;jettySize=auto;html=1;exitX=1;exitY=0.5;exitDx=0;exitDy=0;entryX=0;entryY=0.5;entryDx=0;entryDy=0;" edge="1" parent="1" source="noA6K6qJ_FCayJkCrpKg-11" target="noA6K6qJ_FCayJkCrpKg-2">
          <mxGeometry relative="1" as="geometry" />
        </mxCell>
        <mxCell id="noA6K6qJ_FCayJkCrpKg-46" style="edgeStyle=orthogonalEdgeStyle;rounded=0;orthogonalLoop=1;jettySize=auto;html=1;exitX=1;exitY=0.5;exitDx=0;exitDy=0;entryX=0.5;entryY=1;entryDx=0;entryDy=0;" edge="1" parent="1" source="noA6K6qJ_FCayJkCrpKg-11" target="noA6K6qJ_FCayJkCrpKg-38">
          <mxGeometry relative="1" as="geometry">
            <mxPoint x="240.0000000000001" y="379.5" as="targetPoint" />
            <Array as="points">
              <mxPoint x="195" y="358" />
              <mxPoint x="240" y="358" />
            </Array>
          </mxGeometry>
        </mxCell>
        <mxCell id="noA6K6qJ_FCayJkCrpKg-11" value="VGA" style="triangle;whiteSpace=wrap;html=1;" vertex="1" parent="1">
          <mxGeometry x="130" y="330" width="40" height="55" as="geometry" />
        </mxCell>
        <mxCell id="noA6K6qJ_FCayJkCrpKg-21" style="edgeStyle=orthogonalEdgeStyle;rounded=0;orthogonalLoop=1;jettySize=auto;html=1;exitX=1;exitY=0.5;exitDx=0;exitDy=0;entryX=0;entryY=0.5;entryDx=0;entryDy=0;" edge="1" parent="1" source="noA6K6qJ_FCayJkCrpKg-12" target="noA6K6qJ_FCayJkCrpKg-1">
          <mxGeometry relative="1" as="geometry" />
        </mxCell>
        <mxCell id="noA6K6qJ_FCayJkCrpKg-45" style="edgeStyle=orthogonalEdgeStyle;rounded=0;orthogonalLoop=1;jettySize=auto;html=1;exitX=1;exitY=0.5;exitDx=0;exitDy=0;entryX=0.5;entryY=0;entryDx=0;entryDy=0;" edge="1" parent="1" source="noA6K6qJ_FCayJkCrpKg-12" target="noA6K6qJ_FCayJkCrpKg-42">
          <mxGeometry relative="1" as="geometry">
            <Array as="points">
              <mxPoint x="190" y="438" />
              <mxPoint x="240" y="438" />
            </Array>
          </mxGeometry>
        </mxCell>
        <mxCell id="noA6K6qJ_FCayJkCrpKg-12" value="VGA" style="triangle;whiteSpace=wrap;html=1;" vertex="1" parent="1">
          <mxGeometry x="130" y="410" width="40" height="55" as="geometry" />
        </mxCell>
        <mxCell id="noA6K6qJ_FCayJkCrpKg-24" style="edgeStyle=orthogonalEdgeStyle;rounded=0;orthogonalLoop=1;jettySize=auto;html=1;exitX=1;exitY=0.5;exitDx=0;exitDy=0;entryX=0;entryY=0.25;entryDx=0;entryDy=0;" edge="1" parent="1" source="noA6K6qJ_FCayJkCrpKg-13" target="noA6K6qJ_FCayJkCrpKg-9">
          <mxGeometry relative="1" as="geometry" />
        </mxCell>
        <mxCell id="noA6K6qJ_FCayJkCrpKg-44" style="edgeStyle=orthogonalEdgeStyle;rounded=0;orthogonalLoop=1;jettySize=auto;html=1;exitX=1;exitY=0.5;exitDx=0;exitDy=0;entryX=0.5;entryY=1;entryDx=0;entryDy=0;" edge="1" parent="1" source="noA6K6qJ_FCayJkCrpKg-13" target="noA6K6qJ_FCayJkCrpKg-42">
          <mxGeometry relative="1" as="geometry">
            <mxPoint x="300" y="517.5" as="targetPoint" />
          </mxGeometry>
        </mxCell>
        <mxCell id="noA6K6qJ_FCayJkCrpKg-77" style="edgeStyle=orthogonalEdgeStyle;rounded=0;orthogonalLoop=1;jettySize=auto;html=1;exitX=1;exitY=0.5;exitDx=0;exitDy=0;entryX=0;entryY=0.5;entryDx=0;entryDy=0;" edge="1" parent="1" source="noA6K6qJ_FCayJkCrpKg-13" target="noA6K6qJ_FCayJkCrpKg-28">
          <mxGeometry relative="1" as="geometry" />
        </mxCell>
        <mxCell id="noA6K6qJ_FCayJkCrpKg-13" value="VGA" style="triangle;whiteSpace=wrap;html=1;" vertex="1" parent="1">
          <mxGeometry x="130" y="490" width="40" height="55" as="geometry" />
        </mxCell>
        <mxCell id="noA6K6qJ_FCayJkCrpKg-23" value="VCO" style="rounded=0;whiteSpace=wrap;html=1;" vertex="1" parent="1">
          <mxGeometry x="160" y="630" width="70" height="60" as="geometry" />
        </mxCell>
        <mxCell id="noA6K6qJ_FCayJkCrpKg-25" style="edgeStyle=orthogonalEdgeStyle;rounded=0;orthogonalLoop=1;jettySize=auto;html=1;exitX=1;exitY=0.5;exitDx=0;exitDy=0;entryX=-0.027;entryY=0.637;entryDx=0;entryDy=0;entryPerimeter=0;strokeColor=#CC00CC;" edge="1" parent="1" source="noA6K6qJ_FCayJkCrpKg-23" target="noA6K6qJ_FCayJkCrpKg-9">
          <mxGeometry relative="1" as="geometry">
            <mxPoint x="260" y="655" as="sourcePoint" />
            <Array as="points">
              <mxPoint x="280" y="640" />
              <mxPoint x="280" y="623" />
            </Array>
          </mxGeometry>
        </mxCell>
        <mxCell id="noA6K6qJ_FCayJkCrpKg-29" value="" style="edgeStyle=orthogonalEdgeStyle;rounded=0;orthogonalLoop=1;jettySize=auto;html=1;exitX=1;exitY=0.25;exitDx=0;exitDy=0;entryX=0.5;entryY=1;entryDx=0;entryDy=0;" edge="1" parent="1" source="noA6K6qJ_FCayJkCrpKg-9" target="noA6K6qJ_FCayJkCrpKg-28">
          <mxGeometry relative="1" as="geometry">
            <mxPoint x="430" y="570" as="sourcePoint" />
            <mxPoint x="485" y="290" as="targetPoint" />
          </mxGeometry>
        </mxCell>
        <mxCell id="noA6K6qJ_FCayJkCrpKg-28" value="" style="shape=sumEllipse;perimeter=ellipsePerimeter;whiteSpace=wrap;html=1;backgroundOutline=1;" vertex="1" parent="1">
          <mxGeometry x="550" y="502.5" width="30" height="30" as="geometry" />
        </mxCell>
        <mxCell id="noA6K6qJ_FCayJkCrpKg-34" value="4 układy wzmacniaczy wyrównujących amplitudy" style="text;html=1;align=center;verticalAlign=middle;resizable=0;points=[];autosize=1;strokeColor=none;fillColor=none;" vertex="1" parent="1">
          <mxGeometry x="70" y="200" width="280" height="30" as="geometry" />
        </mxCell>
        <mxCell id="noA6K6qJ_FCayJkCrpKg-35" value="V tune" style="text;html=1;align=center;verticalAlign=middle;resizable=0;points=[];autosize=1;strokeColor=none;fillColor=none;" vertex="1" parent="1">
          <mxGeometry x="300" y="678" width="60" height="30" as="geometry" />
        </mxCell>
        <mxCell id="noA6K6qJ_FCayJkCrpKg-36" value="Ref clock" style="text;html=1;align=center;verticalAlign=middle;resizable=0;points=[];autosize=1;strokeColor=none;fillColor=none;" vertex="1" parent="1">
          <mxGeometry x="450" y="570" width="70" height="30" as="geometry" />
        </mxCell>
        <mxCell id="noA6K6qJ_FCayJkCrpKg-65" style="edgeStyle=orthogonalEdgeStyle;rounded=0;orthogonalLoop=1;jettySize=auto;html=1;exitX=1;exitY=0.5;exitDx=0;exitDy=0;entryX=0;entryY=0.5;entryDx=0;entryDy=0;" edge="1" parent="1" source="noA6K6qJ_FCayJkCrpKg-38" target="noA6K6qJ_FCayJkCrpKg-57">
          <mxGeometry relative="1" as="geometry" />
        </mxCell>
        <mxCell id="noA6K6qJ_FCayJkCrpKg-38" value="Układ decyzyjny" style="rounded=0;whiteSpace=wrap;html=1;" vertex="1" parent="1">
          <mxGeometry x="210" y="293" width="60" height="37" as="geometry" />
        </mxCell>
        <mxCell id="noA6K6qJ_FCayJkCrpKg-63" style="edgeStyle=orthogonalEdgeStyle;rounded=0;orthogonalLoop=1;jettySize=auto;html=1;exitX=1;exitY=0.5;exitDx=0;exitDy=0;entryX=0;entryY=0.5;entryDx=0;entryDy=0;" edge="1" parent="1" source="noA6K6qJ_FCayJkCrpKg-42" target="noA6K6qJ_FCayJkCrpKg-59">
          <mxGeometry relative="1" as="geometry" />
        </mxCell>
        <mxCell id="noA6K6qJ_FCayJkCrpKg-42" value="Układ decyzyjny" style="rounded=0;whiteSpace=wrap;html=1;" vertex="1" parent="1">
          <mxGeometry x="210" y="453" width="60" height="37" as="geometry" />
        </mxCell>
        <mxCell id="noA6K6qJ_FCayJkCrpKg-70" style="edgeStyle=orthogonalEdgeStyle;rounded=0;orthogonalLoop=1;jettySize=auto;html=1;exitX=1;exitY=0.5;exitDx=0;exitDy=0;entryX=0;entryY=0.25;entryDx=0;entryDy=0;" edge="1" parent="1" source="noA6K6qJ_FCayJkCrpKg-47" target="noA6K6qJ_FCayJkCrpKg-56">
          <mxGeometry relative="1" as="geometry">
            <Array as="points">
              <mxPoint x="720" y="278" />
              <mxPoint x="720" y="400" />
            </Array>
          </mxGeometry>
        </mxCell>
        <mxCell id="noA6K6qJ_FCayJkCrpKg-47" value="Low pass" style="rounded=0;whiteSpace=wrap;html=1;" vertex="1" parent="1">
          <mxGeometry x="600" y="263" width="70" height="30" as="geometry" />
        </mxCell>
        <mxCell id="noA6K6qJ_FCayJkCrpKg-48" value="Low pass" style="rounded=0;whiteSpace=wrap;html=1;" vertex="1" parent="1">
          <mxGeometry x="600" y="342.5" width="70" height="30" as="geometry" />
        </mxCell>
        <mxCell id="noA6K6qJ_FCayJkCrpKg-49" value="Low pass" style="rounded=0;whiteSpace=wrap;html=1;" vertex="1" parent="1">
          <mxGeometry x="600" y="423" width="70" height="30" as="geometry" />
        </mxCell>
        <mxCell id="noA6K6qJ_FCayJkCrpKg-72" style="edgeStyle=orthogonalEdgeStyle;rounded=0;orthogonalLoop=1;jettySize=auto;html=1;exitX=1;exitY=0.5;exitDx=0;exitDy=0;entryX=0;entryY=0.75;entryDx=0;entryDy=0;" edge="1" parent="1" source="noA6K6qJ_FCayJkCrpKg-50" target="noA6K6qJ_FCayJkCrpKg-56">
          <mxGeometry relative="1" as="geometry">
            <Array as="points">
              <mxPoint x="720" y="517" />
              <mxPoint x="720" y="440" />
            </Array>
          </mxGeometry>
        </mxCell>
        <mxCell id="noA6K6qJ_FCayJkCrpKg-50" value="Low pass" style="rounded=0;whiteSpace=wrap;html=1;" vertex="1" parent="1">
          <mxGeometry x="600" y="502.5" width="70" height="30" as="geometry" />
        </mxCell>
        <mxCell id="noA6K6qJ_FCayJkCrpKg-52" style="edgeStyle=orthogonalEdgeStyle;rounded=0;orthogonalLoop=1;jettySize=auto;html=1;exitX=1;exitY=0.5;exitDx=0;exitDy=0;entryX=0;entryY=0.4;entryDx=0;entryDy=0;entryPerimeter=0;" edge="1" parent="1" source="noA6K6qJ_FCayJkCrpKg-4" target="noA6K6qJ_FCayJkCrpKg-47">
          <mxGeometry relative="1" as="geometry" />
        </mxCell>
        <mxCell id="noA6K6qJ_FCayJkCrpKg-55" style="edgeStyle=orthogonalEdgeStyle;rounded=0;orthogonalLoop=1;jettySize=auto;html=1;exitX=1;exitY=0.5;exitDx=0;exitDy=0;entryX=0;entryY=0.5;entryDx=0;entryDy=0;" edge="1" parent="1" source="noA6K6qJ_FCayJkCrpKg-28" target="noA6K6qJ_FCayJkCrpKg-50">
          <mxGeometry relative="1" as="geometry" />
        </mxCell>
        <mxCell id="noA6K6qJ_FCayJkCrpKg-56" value="MCU&lt;div&gt;ADC&lt;/div&gt;&lt;div&gt;+&lt;/div&gt;&lt;div&gt;algorytm&lt;/div&gt;" style="whiteSpace=wrap;html=1;aspect=fixed;" vertex="1" parent="1">
          <mxGeometry x="740" y="380" width="80" height="80" as="geometry" />
        </mxCell>
        <mxCell id="noA6K6qJ_FCayJkCrpKg-57" value="MCU Timer" style="rounded=0;whiteSpace=wrap;html=1;" vertex="1" parent="1">
          <mxGeometry x="310" y="296.5" width="80" height="30" as="geometry" />
        </mxCell>
        <mxCell id="noA6K6qJ_FCayJkCrpKg-59" value="MCU Timer" style="rounded=0;whiteSpace=wrap;html=1;" vertex="1" parent="1">
          <mxGeometry x="334" y="456.5" width="80" height="30" as="geometry" />
        </mxCell>
        <mxCell id="noA6K6qJ_FCayJkCrpKg-68" value="PLL lock" style="text;html=1;align=center;verticalAlign=middle;resizable=0;points=[];autosize=1;strokeColor=none;fillColor=none;" vertex="1" parent="1">
          <mxGeometry x="320" y="545" width="70" height="30" as="geometry" />
        </mxCell>
        <mxCell id="noA6K6qJ_FCayJkCrpKg-69" style="edgeStyle=orthogonalEdgeStyle;rounded=0;orthogonalLoop=1;jettySize=auto;html=1;exitX=1;exitY=0.5;exitDx=0;exitDy=0;entryX=0;entryY=0.375;entryDx=0;entryDy=0;entryPerimeter=0;" edge="1" parent="1" source="noA6K6qJ_FCayJkCrpKg-48" target="noA6K6qJ_FCayJkCrpKg-56">
          <mxGeometry relative="1" as="geometry" />
        </mxCell>
        <mxCell id="noA6K6qJ_FCayJkCrpKg-71" style="edgeStyle=orthogonalEdgeStyle;rounded=0;orthogonalLoop=1;jettySize=auto;html=1;exitX=1;exitY=0.5;exitDx=0;exitDy=0;entryX=-0.024;entryY=0.615;entryDx=0;entryDy=0;entryPerimeter=0;" edge="1" parent="1" source="noA6K6qJ_FCayJkCrpKg-49" target="noA6K6qJ_FCayJkCrpKg-56">
          <mxGeometry relative="1" as="geometry">
            <mxPoint x="736" y="430" as="targetPoint" />
          </mxGeometry>
        </mxCell>
        <mxCell id="noA6K6qJ_FCayJkCrpKg-73" value="4 mieszacze&lt;div&gt;np&amp;nbsp;&lt;span style=&quot;background-color: rgb(255, 255, 255); color: rgb(34, 34, 34); font-family: &amp;quot;Helvetica Neue&amp;quot;, Helvetica, &amp;quot;PingFang SC&amp;quot;, &amp;quot;Hiragino Sans GB&amp;quot;, &amp;quot;Microsoft YaHei&amp;quot;, 微软雅黑, Arial, sans-serif; text-align: left; text-wrap: wrap;&quot;&gt;&lt;font style=&quot;font-size: 11px;&quot;&gt;MAX2682&lt;/font&gt;&lt;/span&gt;&lt;/div&gt;" style="text;html=1;align=center;verticalAlign=middle;resizable=0;points=[];autosize=1;strokeColor=none;fillColor=none;" vertex="1" parent="1">
          <mxGeometry x="520" y="212.5" width="90" height="40" as="geometry" />
        </mxCell>
        <mxCell id="noA6K6qJ_FCayJkCrpKg-74" value="Zliczanie impulsu&lt;div&gt;&amp;nbsp;synchronizującego&lt;/div&gt;" style="text;html=1;align=center;verticalAlign=middle;resizable=0;points=[];autosize=1;strokeColor=none;fillColor=none;" vertex="1" parent="1">
          <mxGeometry x="220" y="370" width="130" height="40" as="geometry" />
        </mxCell>
        <mxCell id="noA6K6qJ_FCayJkCrpKg-75" value="Przewody RF&lt;div&gt;O takiej samej długości&lt;/div&gt;" style="text;html=1;align=center;verticalAlign=middle;resizable=0;points=[];autosize=1;strokeColor=none;fillColor=none;" vertex="1" parent="1">
          <mxGeometry y="564" width="150" height="40" as="geometry" />
        </mxCell>
        <mxCell id="noA6K6qJ_FCayJkCrpKg-81" style="edgeStyle=orthogonalEdgeStyle;rounded=0;orthogonalLoop=1;jettySize=auto;html=1;exitX=0.25;exitY=1;exitDx=0;exitDy=0;entryX=0;entryY=0.25;entryDx=0;entryDy=0;" edge="1" parent="1" source="noA6K6qJ_FCayJkCrpKg-76" target="noA6K6qJ_FCayJkCrpKg-80">
          <mxGeometry relative="1" as="geometry" />
        </mxCell>
        <mxCell id="noA6K6qJ_FCayJkCrpKg-76" value="MCU&lt;div&gt;DAC&lt;/div&gt;" style="rounded=0;whiteSpace=wrap;html=1;" vertex="1" parent="1">
          <mxGeometry x="360" y="110" width="120" height="60" as="geometry" />
        </mxCell>
        <mxCell id="noA6K6qJ_FCayJkCrpKg-82" style="edgeStyle=orthogonalEdgeStyle;rounded=0;orthogonalLoop=1;jettySize=auto;html=1;exitX=0.965;exitY=0.625;exitDx=0;exitDy=0;entryX=0;entryY=0.5;entryDx=0;entryDy=0;exitPerimeter=0;" edge="1" parent="1" source="noA6K6qJ_FCayJkCrpKg-80" target="noA6K6qJ_FCayJkCrpKg-4">
          <mxGeometry relative="1" as="geometry">
            <Array as="points">
              <mxPoint x="506" y="274" />
              <mxPoint x="506" y="275" />
            </Array>
          </mxGeometry>
        </mxCell>
        <mxCell id="noA6K6qJ_FCayJkCrpKg-80" value="MUX" style="whiteSpace=wrap;html=1;aspect=fixed;" vertex="1" parent="1">
          <mxGeometry x="420" y="247.5" width="42" height="42" as="geometry" />
        </mxCell>
        <mxCell id="noA6K6qJ_FCayJkCrpKg-83" value="Opcjonalnie&lt;div&gt;&lt;br&gt;&lt;/div&gt;" style="text;html=1;align=center;verticalAlign=middle;resizable=0;points=[];autosize=1;strokeColor=none;fillColor=none;" vertex="1" parent="1">
          <mxGeometry x="372" y="80" width="90" height="40" as="geometry" />
        </mxCell>
        <mxCell id="noA6K6qJ_FCayJkCrpKg-84" value="Ref clock" style="text;html=1;align=center;verticalAlign=middle;resizable=0;points=[];autosize=1;strokeColor=none;fillColor=none;rotation=-90;" vertex="1" parent="1">
          <mxGeometry x="510" y="380" width="70" height="30" as="geometry" />
        </mxCell>
        <mxCell id="noA6K6qJ_FCayJkCrpKg-85" value="Ref clock" style="text;html=1;align=center;verticalAlign=middle;resizable=0;points=[];autosize=1;strokeColor=none;fillColor=none;rotation=-90;" vertex="1" parent="1">
          <mxGeometry x="510" y="302.5" width="70" height="30" as="geometry" />
        </mxCell>
        <mxCell id="noA6K6qJ_FCayJkCrpKg-86" value="STM32" style="text;html=1;align=center;verticalAlign=middle;resizable=0;points=[];autosize=1;strokeColor=none;fillColor=none;" vertex="1" parent="1">
          <mxGeometry x="750" y="340" width="60" height="30" as="geometry" />
        </mxCell>
      </root>
    </mxGraphModel>
  </diagram>
</mxfile>
